<svg width="13" height="14" viewBox="0 0 13 14" fill="none" xmlns="http://www.w3.org/2000/svg">
<path d="M12.5479 6.30462C12.5479 6.84 12.4832 7.50462 12.3538 8.29846H3.42223C3.75508 10.3846 5.12347 11.4277 7.52741 11.4277C8.85882 11.4277 10.1163 11.0954 11.2997 10.4308V12.9785C9.93134 13.6062 8.56295 13.92 7.19455 13.92C5.82616 13.92 4.62419 13.6431 3.58865 13.0892C2.55311 12.5354 1.74872 11.76 1.17547 10.7631C0.620717 9.74769 0.343338 8.57539 0.343338 7.24615C0.343338 5.93538 0.602226 4.78154 1.12 3.78462C1.65626 2.76923 2.40518 1.99385 3.36675 1.45846C4.34682 0.904616 5.47481 0.627693 6.75075 0.627693C8.52596 0.627693 9.93134 1.14462 10.9669 2.17846C12.0209 3.19385 12.5479 4.56923 12.5479 6.30462ZM6.80623 3.12C5.82616 3.12 5.04026 3.39692 4.44852 3.95077C3.87528 4.48615 3.52393 5.27077 3.39449 6.30462H9.91285C9.91285 5.28923 9.64472 4.50462 9.10846 3.95077C8.5722 3.39692 7.80479 3.12 6.80623 3.12Z" fill="black"/>
</svg>
