<svg width="11" height="14" viewBox="0 0 11 14" fill="none" xmlns="http://www.w3.org/2000/svg">
<path d="M5.35128 11.5385C5.9985 11.5385 6.50702 11.4092 6.87685 11.1508C7.24669 10.8738 7.43161 10.4954 7.43161 10.0154C7.43161 9.59077 7.24669 9.24923 6.87685 8.99077C6.52551 8.71385 5.82282 8.39077 4.76879 8.02154C3.40039 7.54154 2.41108 7.01539 1.80085 6.44308C1.19062 5.87077 0.885506 5.16 0.885506 4.31077C0.885506 3.22154 1.3478 2.33539 2.27239 1.65231C3.19698 0.969231 4.40819 0.627693 5.90603 0.627693C7.38538 0.627693 8.84623 0.987693 10.2886 1.70769V4.25539C9.62289 3.86769 8.91095 3.56308 8.15279 3.34154C7.39462 3.10154 6.65495 2.98154 5.93377 2.98154C5.32354 2.98154 4.84275 3.09231 4.49141 3.31385C4.15856 3.51692 3.99213 3.80308 3.99213 4.17231C3.99213 4.50462 4.14007 4.78154 4.43593 5.00308C4.7503 5.22462 5.35128 5.48308 6.23888 5.77846C7.34839 6.16615 8.20827 6.55385 8.8185 6.94154C9.44722 7.31077 9.89102 7.72615 10.1499 8.18769C10.4088 8.64923 10.5382 9.20308 10.5382 9.84923C10.5382 11.1415 10.0852 12.1477 9.17908 12.8677C8.27298 13.5692 7.0063 13.92 5.37902 13.92C3.99213 13.92 2.53128 13.4954 0.99646 12.6462V10.1262C1.68066 10.5508 2.40184 10.8923 3.16 11.1508C3.91817 11.4092 4.64859 11.5385 5.35128 11.5385Z" fill="black"/>
</svg>
