<svg width="14" height="14" viewBox="0 0 14 14" fill="none" xmlns="http://www.w3.org/2000/svg">
<path d="M6.98005 13.92C5.59316 13.92 4.37271 13.6431 3.31867 13.0892C2.26464 12.5169 1.451 11.7323 0.877756 10.7354C0.30451 9.73846 0.0178833 8.58462 0.0178833 7.27385C0.0178833 5.96308 0.30451 4.80923 0.877756 3.81231C1.451 2.81539 2.26464 2.04 3.31867 1.48615C4.37271 0.913847 5.59316 0.627693 6.98005 0.627693C8.36693 0.627693 9.57815 0.913847 10.6137 1.48615C11.6677 2.04 12.4814 2.81539 13.0546 3.81231C13.6279 4.80923 13.9145 5.96308 13.9145 7.27385C13.9145 8.58462 13.6279 9.73846 13.0546 10.7354C12.4814 11.7323 11.6677 12.5169 10.6137 13.0892C9.57815 13.6431 8.36693 13.92 6.98005 13.92ZM6.98005 11.4277C8.08956 11.4277 9.0049 11.0492 9.72608 10.2923C10.4473 9.53539 10.8079 8.52923 10.8079 7.27385C10.8079 6.01846 10.4473 5.01231 9.72608 4.25539C9.0049 3.49846 8.08956 3.12 6.98005 3.12C5.87054 3.12 4.95519 3.49846 4.23401 4.25539C3.51283 5.01231 3.15224 6.01846 3.15224 7.27385C3.15224 8.52923 3.51283 9.53539 4.23401 10.2923C4.95519 11.0492 5.87054 11.4277 6.98005 11.4277Z" fill="black"/>
</svg>
