<svg width="11" height="14" viewBox="0 0 11 14" fill="none" xmlns="http://www.w3.org/2000/svg">
<path d="M5.37586 11.5385C6.02307 11.5385 6.5316 11.4092 6.90144 11.1508C7.27127 10.8738 7.45619 10.4954 7.45619 10.0154C7.45619 9.59077 7.27127 9.24923 6.90144 8.99077C6.55009 8.71385 5.8474 8.39077 4.79337 8.02154C3.42497 7.54154 2.43566 7.01539 1.82543 6.44308C1.2152 5.87077 0.910088 5.16 0.910088 4.31077C0.910088 3.22154 1.37239 2.33539 2.29698 1.65231C3.22157 0.969231 4.43278 0.627693 5.93061 0.627693C7.40996 0.627693 8.87081 0.987693 10.3132 1.70769V4.25539C9.64747 3.86769 8.93553 3.56308 8.17737 3.34154C7.4192 3.10154 6.67953 2.98154 5.95835 2.98154C5.34812 2.98154 4.86734 3.09231 4.51599 3.31385C4.18314 3.51692 4.01671 3.80308 4.01671 4.17231C4.01671 4.50462 4.16465 4.78154 4.46052 5.00308C4.77488 5.22462 5.37586 5.48308 6.26347 5.77846C7.37297 6.16615 8.23284 6.55385 8.84307 6.94154C9.47179 7.31077 9.9156 7.72615 10.1745 8.18769C10.4334 8.64923 10.5628 9.20308 10.5628 9.84923C10.5628 11.1415 10.1098 12.1477 9.20366 12.8677C8.29757 13.5692 7.03088 13.92 5.4036 13.92C4.01671 13.92 2.55586 13.4954 1.02104 12.6462V10.1262C1.70523 10.5508 2.42641 10.8923 3.18458 11.1508C3.94274 11.4092 4.67317 11.5385 5.37586 11.5385Z" fill="black"/>
</svg>
