<svg width="14" height="14" viewBox="0 0 14 14" fill="none" xmlns="http://www.w3.org/2000/svg">
<path d="M8.717 0.627693C10.141 0.627693 11.2505 1.02462 12.0456 1.81846C12.8593 2.59385 13.2661 3.76615 13.2661 5.33538V13.6154H10.2427V5.91692C10.2427 4.99385 10.0023 4.30154 9.52139 3.84C9.04061 3.37846 8.3749 3.14769 7.52428 3.14769C6.71064 3.14769 5.99871 3.36 5.38848 3.78462C4.77825 4.20923 4.3252 4.79077 4.02933 5.52923V13.6154H0.97818V0.932308H4.02933V2.92615C4.5471 2.18769 5.20356 1.62462 5.99871 1.23692C6.79385 0.83077 7.69995 0.627693 8.717 0.627693Z" fill="black"/>
</svg>
